<svg width="1440" height="248" viewBox="0 0 1440 248" fill="none" xmlns="http://www.w3.org/2000/svg">
<g filter="url(#filter0_d_97_557)">
<path d="M86.9508 174.855C72.1475 108.743 65.3314 95.0416 1.42662e-05 86.537L0 30H1440V86.537C1428.49 130.628 1402.37 198.715 1329.67 127.843C1276.24 52.7958 1216.67 101.407 1209.42 127.843C1206.2 139.571 1204.68 161.458 1197.99 172.911C1191.48 184.046 1177.62 186.84 1168.33 171.769C1162.52 162.34 1152.73 131.184 1141.86 114.925C1095.44 45.4884 1044.11 94.2883 1029.85 137.532C1025.41 150.989 1027.36 176.554 1022.19 193.463C1014.94 217.216 994.323 221.322 982.89 186.841C978.823 174.576 975.172 112.977 966.096 97.3251C928.735 27.5949 864.719 74.5359 852.141 108.466C846.255 124.344 824.03 146.599 812.597 111.889L812.473 111.582C809.245 103.558 803.954 90.4029 794.877 80.1985C740.694 19.283 673.594 65.5837 673.594 130.534C673.594 175.194 636.304 185.014 626.657 153.501C621.768 137.532 620.186 126.325 615.482 114.925C595.269 65.9433 521.997 78.3232 505.153 86.537C488.309 94.7507 470.158 131.35 420.135 80.1985C371.541 37.496 315.087 73.5762 307.941 108.743C300.795 143.91 275.069 177.706 245.754 114.925C216.847 53.0189 150.186 75.1586 138.936 102.121C126.073 132.949 138.936 144.289 129.53 174.855C116.153 218.319 93.7319 195.494 86.9508 174.855Z" fill="#FBFBFB"/>
</g>
<defs>
<filter id="filter0_d_97_557" x="-33" y="0" width="1506" height="248" filterUnits="userSpaceOnUse" color-interpolation-filters="sRGB">
<feFlood flood-opacity="0" result="BackgroundImageFix"/>
<feColorMatrix in="SourceAlpha" type="matrix" values="0 0 0 0 0 0 0 0 0 0 0 0 0 0 0 0 0 0 127 0" result="hardAlpha"/>
<feOffset dy="3"/>
<feGaussianBlur stdDeviation="16.5"/>
<feComposite in2="hardAlpha" operator="out"/>
<feColorMatrix type="matrix" values="0 0 0 0 0 0 0 0 0 0 0 0 0 0 0 0 0 0 0.25 0"/>
<feBlend mode="normal" in2="BackgroundImageFix" result="effect1_dropShadow_97_557"/>
<feBlend mode="normal" in="SourceGraphic" in2="effect1_dropShadow_97_557" result="shape"/>
</filter>
</defs>
</svg>
